<svg width="323" height="171" viewBox="0 0 323 171" fill="none" xmlns="http://www.w3.org/2000/svg">
<path d="M60.2807 130.035C59.5877 130.035 57.2277 130.728 55.1457 133.781C53.0647 136.834 43.6277 152.377 41.9627 155.291C40.1577 158.205 40.7137 159.455 42.6557 159.455C44.3207 159.455 44.7377 159.455 46.8187 159.455C48.7617 159.455 50.5657 157.234 51.2597 155.707C52.2317 154.32 63.3327 136.279 65.1367 133.644C66.6627 131.006 65.6927 130.037 64.4427 130.037C63.3347 130.035 60.2807 130.035 60.2807 130.035Z" fill="white"/>
<path d="M22.3957 159.455C29.4737 159.178 34.1917 158.898 39.7427 148.769C42.1017 144.189 35.4407 144.049 35.4407 144.049C34.4687 144.049 41.5467 144.189 45.2937 136.278C48.7637 129.061 42.6567 129.618 41.5477 129.479C36.2737 128.784 26.4207 129.061 18.9277 129.479C17.4007 129.479 15.5967 131.559 14.6247 132.809C13.9317 134.196 2.41268 152.79 0.74768 155.428C-1.05732 158.202 0.747681 159.315 2.55168 159.452C7.82468 159.732 14.4857 159.732 22.3957 159.455ZM28.5017 149.74C26.5597 153.765 22.9507 153.904 20.8697 153.904C18.9277 153.904 16.0127 153.904 15.3187 153.904C14.6247 153.904 13.9307 153.904 14.6247 152.377C15.5967 151.129 16.9837 148.908 17.5397 148.074C18.0947 147.103 18.6487 146.826 19.8977 146.826C19.8977 146.826 24.6167 146.826 25.8657 146.826C26.9757 146.826 29.8897 146.687 28.5017 149.74ZM33.6357 137.806C31.6937 141.828 27.9467 141.828 26.0037 141.828C23.9227 141.828 23.5057 141.828 22.6737 141.828C22.1177 141.828 21.1467 141.828 22.1177 140.58C23.0897 139.191 24.1987 136.832 24.8927 136C25.5857 135.168 26.1417 134.75 27.1137 134.75C27.1137 134.75 30.0277 134.75 31.1377 134.75C32.2487 134.752 35.1637 134.752 33.6357 137.806Z" fill="white"/>
<path d="M253.453 141.136L244.295 155.706C242.353 158.759 244.019 159.454 244.988 159.454C245.961 159.454 247.347 159.454 249.013 159.454C250.538 159.454 251.65 159.315 254.009 155.706L263.167 140.858C265.665 136.833 262.611 137.112 260.669 137.112C257.201 137.25 256.369 137.113 253.453 141.136Z" fill="white"/>
<path d="M291.201 142.107H280.236C279.127 142.107 277.599 143.08 276.767 144.189C276.074 145.299 276.49 146.41 277.599 146.41C277.599 146.271 282.039 146.41 285.37 146.41C288.84 146.271 290.09 148.631 286.344 153.765C285.649 154.873 284.122 156.679 282.872 157.371C282.872 157.371 279.819 159.869 269.967 159.869C260.946 159.869 260.53 158.896 260.53 158.896C259.698 158.203 259.422 156.955 259.698 156.258C260.114 155.703 261.504 155.15 262.612 155.15H273.991C275.1 155.15 276.628 154.179 277.321 152.929C278.155 151.82 277.737 150.433 276.628 150.433C276.628 150.433 272.188 150.433 268.164 150.433C264.14 150.433 264.694 147.793 267.748 143.355C268.58 142.105 270.106 140.58 271.217 139.746C271.217 139.746 274.547 137.248 284.262 137.248C288.149 137.248 294.669 136.832 294.254 140.164C294.115 141.691 291.894 142.107 291.201 142.107Z" fill="white"/>
<path d="M319.925 142.246H311.043C309.933 142.246 308.406 143.219 307.714 144.605L302.441 152.793C301.746 153.904 302.164 155.152 302.996 155.152C302.996 155.152 312.017 155.152 313.543 155.152C315.068 155.152 316.041 155.291 315.902 155.707C315.763 157.234 313.543 159.871 301.191 159.871C290.089 159.871 290.783 158.344 290.921 156.681C291.199 154.875 296.609 146.273 298.275 143.635C299.941 140.861 302.3 137.25 313.263 137.25C323.533 137.25 322.976 139.609 322.837 140.166C322.839 140.72 322.285 142.246 319.925 142.246Z" fill="white"/>
<path d="M268.441 128.785C269.273 128.785 270.246 129.619 269.55 131.006C268.718 132.117 268.441 132.672 268.025 133.504C267.47 134.336 266.22 134.752 264.695 134.752C263.168 134.752 259.56 134.752 259.006 134.752C257.896 134.752 257.896 133.781 258.449 132.812C258.865 131.98 259.142 131.562 259.56 131.006C259.976 130.314 260.669 128.785 262.89 128.785H268.441V128.785Z" fill="white"/>
<path d="M102.468 144.744C100.387 144.744 99.5537 146.133 99.1377 146.826C98.8597 147.381 98.4437 147.797 97.8887 148.769C97.4717 149.74 97.6107 150.709 98.1657 150.709C98.8587 150.709 102.606 150.709 104.133 150.709C105.938 150.709 106.908 150.154 107.463 149.322C108.019 148.351 108.157 148.072 108.99 146.685C109.961 145.297 108.712 144.742 108.018 144.742L102.468 144.744Z" fill="white"/>
<path d="M240.41 150.435C244.017 144.605 241.797 148.213 246.931 140.027C251.927 131.699 244.017 130.035 236.245 130.035C224.31 130.035 220.701 130.59 220.701 130.59C219.454 130.59 217.788 131.699 217.095 133.088L202.661 156.402C201.829 157.789 202.105 158.898 203.218 159.176C203.218 159.176 206.687 159.453 218.62 159.453C234.998 159.455 236.523 156.402 240.41 150.435ZM235.552 140.027C235.552 140.027 229.308 149.879 228.89 150.435C228.335 151.267 226.392 153.904 223.478 153.904C221.675 153.904 219.177 153.904 217.373 153.904C216.262 153.904 215.707 153.765 216.402 152.654L226.392 136.695C226.81 136.14 227.503 135.724 228.335 135.724C230.001 135.724 233.054 135.724 234.302 135.724C236.246 135.724 236.8 137.806 235.552 140.027Z" fill="white"/>
<path d="M144.794 145.855C141.325 145.855 140.215 146.131 137.162 146.271C135.913 146.271 134.248 147.242 133.554 148.629L130.64 153.625C127.032 159.314 134.803 159.73 140.909 159.73C150.763 159.73 155.48 156.955 155.48 156.955C156.729 156.4 158.256 154.873 158.95 153.625L165.334 143.217C166.028 142.107 166.307 140.164 165.61 139.054C165.61 139.054 164.778 137.113 154.925 137.113C145.211 137.113 141.325 138.638 141.325 138.638C140.215 139.193 138.827 140.164 138.41 140.72C138.134 141.551 138.688 142.107 139.799 142.107H154.231C155.342 142.107 155.758 143.08 155.203 144.049C153.954 145.715 151.873 145.855 151.873 145.855H144.794V145.855ZM150.345 152.654V152.793C149.373 154.183 147.43 155.431 146.321 155.431H143.407H140.77C139.66 155.431 139.243 154.183 140.214 152.793V152.654C141.186 151.129 143.128 149.879 144.238 149.879H149.789C150.9 149.879 151.316 151.129 150.345 152.654Z" fill="white"/>
<path d="M125.644 144.189C126.615 142.801 128.141 141.83 129.251 141.83H133.691C134.385 141.83 136.605 141.691 136.745 140.306C136.884 138.084 132.165 137.531 130.361 137.531C123.839 137.531 120.23 137.808 116.483 143.359C113.569 147.797 110.655 152.379 108.712 155.709C107.047 158.763 108.574 159.457 109.545 159.457C110.517 159.457 112.043 159.457 113.569 159.457C115.095 159.457 116.206 159.318 118.565 155.709L125.644 144.189Z" fill="white"/>
<path d="M96.6397 141.275L90.3947 151.683C89.5617 152.791 90.3947 153.347 91.0877 153.347C91.9207 153.347 92.6147 153.347 93.3087 153.347C94.0027 153.347 94.9737 154.181 94.1407 155.429C93.4477 156.818 93.3087 157.371 92.6157 158.203C92.0597 159.176 91.0887 159.453 89.4237 159.453C88.3147 159.453 87.4817 159.453 86.7867 159.453C84.9827 159.453 85.9537 156.816 85.9537 156.816C83.3177 159.73 77.2117 159.73 70.8277 159.73C64.7227 159.73 56.8117 159.73 60.4207 153.625L68.1917 141.135C69.4407 139.053 70.4117 138.222 71.6607 137.666C71.6607 137.666 71.9377 137.248 75.2677 137.248C77.4887 137.248 80.4027 137.248 77.9057 141.135L70.8277 152.654C69.9957 153.765 70.4117 154.875 71.6607 154.875H76.5167C77.7657 154.875 79.2927 153.767 80.2637 152.654C80.2637 152.654 83.8717 146.41 87.0647 141.275C87.8967 140.027 89.9787 137.25 92.0597 137.25C92.0597 137.25 94.0027 137.25 95.5297 137.25C97.0567 137.25 98.8597 137.668 96.6397 141.275Z" fill="white"/>
<path d="M159.782 165.283H171.301L173.66 165.422C174.908 165.422 176.435 164.314 177.129 162.924L179.488 159.455C177.961 159.732 176.435 159.732 174.631 159.732C168.803 159.732 160.755 159.732 164.361 153.627L171.855 141.554C172.826 140.166 174.353 138.64 175.324 138.084C175.324 137.808 175.879 137.668 179.072 137.668C181.152 137.668 184.484 137.113 181.568 141.554L174.908 152.656C174.076 153.767 174.353 154.877 175.463 154.877H180.183C181.154 154.877 182.957 153.769 183.652 152.656L190.59 141.553C191.283 140.166 192.949 138.64 194.06 138.084C194.06 138.084 194.617 137.668 197.805 137.668C199.611 137.668 203.219 137.113 200.305 141.553L194.476 150.853C194.199 151.269 194.06 151.408 193.783 152.101L186.429 164.035C185.597 165.285 184.07 166.812 182.96 167.506C182.96 167.506 178.103 170.281 168.39 170.281C167.974 170.281 167.417 170.281 167.001 170.281C157.98 170.004 158.397 169.447 157.842 169.031C157.286 168.892 156.731 168.06 156.869 166.949C157.006 165.976 158.255 165.283 159.782 165.283Z" fill="white"/>
<path d="M68.1917 9.71661C67.9137 9.71661 67.9137 9.85761 67.7747 9.99461C55.7017 26.9246 48.6247 38.1656 41.1297 52.0426L40.2977 53.5686L40.1577 54.1246C39.4647 55.5136 39.6027 57.0386 40.5747 58.2876C45.0147 65.2256 69.8557 73.4136 125.226 73.4136C166.58 73.4136 210.571 66.7526 210.571 54.2646C210.571 42.4676 167.274 35.3916 125.226 35.3916C111.209 35.3916 97.4707 37.1956 93.5847 37.8896C97.3317 32.0606 113.152 10.8266 113.152 10.6896C113.429 10.4126 113.429 10.4126 113.429 10.2736V9.99661C113.152 9.85761 113.013 9.71861 112.736 9.71861L68.1917 9.71661ZM84.2887 54.2636C84.2887 51.7656 99.9707 48.1576 125.227 48.1576C150.483 48.1576 166.027 51.7656 166.027 54.2636C166.027 57.0376 150.484 60.5076 125.227 60.5076C99.9697 60.5086 84.2887 57.0396 84.2887 54.2636Z" fill="white"/>
<path d="M99.5537 116.574C106.631 116.713 305.771 123.65 310.213 53.0146C313.819 -5.41039 167.275 0.141604 167.275 0.141604C166.999 0.141604 166.027 0.141604 166.027 0.834604C166.027 1.6676 166.443 1.8076 166.999 1.8076C207.658 1.8076 273.716 18.0426 271.634 53.0146C269.968 81.3246 218.345 114.629 99.5547 114.629C98.9997 114.629 98.4447 115.185 98.4447 115.601C98.4437 116.019 98.8597 116.435 99.5537 116.574Z" fill="white"/>
</svg>
