<svg width="205" height="89" viewBox="0 0 205 89" fill="none" xmlns="http://www.w3.org/2000/svg">
<path d="M79.372 72.102C79.9293 72.19 80.4353 72.4173 80.89 72.784C81.3593 73.1507 81.726 73.6053 81.99 74.148C82.2687 74.6907 82.408 75.27 82.408 75.886C82.408 76.6633 82.21 77.3673 81.814 77.998C81.418 78.614 80.8387 79.1053 80.076 79.472C79.328 79.824 78.4407 80 77.414 80H71.694V64.666H77.194C78.2353 64.666 79.1227 64.842 79.856 65.194C80.5893 65.5313 81.1393 65.9933 81.506 66.58C81.8727 67.1667 82.056 67.8267 82.056 68.56C82.056 69.4693 81.8067 70.2247 81.308 70.826C80.824 71.4127 80.1787 71.838 79.372 72.102ZM73.696 71.288H77.062C78.0007 71.288 78.7267 71.068 79.24 70.628C79.7533 70.188 80.01 69.5793 80.01 68.802C80.01 68.0247 79.7533 67.416 79.24 66.976C78.7267 66.536 77.986 66.316 77.018 66.316H73.696V71.288ZM77.238 78.35C78.2353 78.35 79.0127 78.1153 79.57 77.646C80.1273 77.1767 80.406 76.524 80.406 75.688C80.406 74.8373 80.1127 74.17 79.526 73.686C78.9393 73.1873 78.1547 72.938 77.172 72.938H73.696V78.35H77.238ZM89.6082 78.372H94.9762V80H87.6062V64.666H89.6082V78.372ZM101.48 64.666V74.368C101.48 75.732 101.81 76.744 102.47 77.404C103.145 78.064 104.076 78.394 105.264 78.394C106.438 78.394 107.354 78.064 108.014 77.404C108.689 76.744 109.026 75.732 109.026 74.368V64.666H111.028V74.346C111.028 75.622 110.772 76.7 110.258 77.58C109.745 78.4453 109.048 79.0907 108.168 79.516C107.303 79.9413 106.328 80.154 105.242 80.154C104.157 80.154 103.174 79.9413 102.294 79.516C101.429 79.0907 100.74 78.4453 100.226 77.58C99.7276 76.7 99.4783 75.622 99.4783 74.346V64.666H101.48ZM124.862 80L121.21 73.73H118.79V80H116.788V64.666H121.738C122.897 64.666 123.872 64.864 124.664 65.26C125.471 65.656 126.072 66.1913 126.468 66.866C126.864 67.5407 127.062 68.3107 127.062 69.176C127.062 70.232 126.754 71.1633 126.138 71.97C125.537 72.7767 124.627 73.312 123.41 73.576L127.26 80H124.862ZM118.79 72.124H121.738C122.823 72.124 123.637 71.86 124.18 71.332C124.723 70.7893 124.994 70.0707 124.994 69.176C124.994 68.2667 124.723 67.5627 124.18 67.064C123.652 66.5653 122.838 66.316 121.738 66.316H118.79V72.124ZM141.657 76.59H134.969L133.737 80H131.625L137.169 64.754H139.479L145.001 80H142.889L141.657 76.59ZM141.085 74.962L138.313 67.218L135.541 74.962H141.085ZM160.573 64.666L155.579 74.214V80H153.577V74.214L148.561 64.666H150.783L154.567 72.432L158.351 64.666H160.573ZM169.967 80.154C168.955 80.154 168.045 79.978 167.239 79.626C166.447 79.2593 165.823 78.7607 165.369 78.13C164.914 77.4847 164.679 76.744 164.665 75.908H166.799C166.872 76.6267 167.165 77.2353 167.679 77.734C168.207 78.218 168.969 78.46 169.967 78.46C170.92 78.46 171.668 78.2253 172.211 77.756C172.768 77.272 173.047 76.656 173.047 75.908C173.047 75.3213 172.885 74.8447 172.563 74.478C172.24 74.1113 171.837 73.8327 171.353 73.642C170.869 73.4513 170.216 73.246 169.395 73.026C168.383 72.762 167.569 72.498 166.953 72.234C166.351 71.97 165.831 71.5593 165.391 71.002C164.965 70.43 164.753 69.6673 164.753 68.714C164.753 67.878 164.965 67.1373 165.391 66.492C165.816 65.8467 166.41 65.348 167.173 64.996C167.95 64.644 168.837 64.468 169.835 64.468C171.272 64.468 172.445 64.8273 173.355 65.546C174.279 66.2647 174.799 67.218 174.917 68.406H172.717C172.643 67.8193 172.335 67.306 171.793 66.866C171.25 66.4113 170.531 66.184 169.637 66.184C168.801 66.184 168.119 66.404 167.591 66.844C167.063 67.2693 166.799 67.8707 166.799 68.648C166.799 69.2053 166.953 69.66 167.261 70.012C167.583 70.364 167.972 70.6353 168.427 70.826C168.896 71.002 169.549 71.2073 170.385 71.442C171.397 71.7207 172.211 71.9993 172.827 72.278C173.443 72.542 173.971 72.96 174.411 73.532C174.851 74.0893 175.071 74.852 175.071 75.82C175.071 76.568 174.873 77.272 174.477 77.932C174.081 78.592 173.494 79.1273 172.717 79.538C171.939 79.9487 171.023 80.154 169.967 80.154Z" fill="white"/>
<path d="M15 0V18L0 22.5L10.5 33L3 48H18V78H24V50.543C27.8906 52.2305 31.9805 53.9648 39.0117 56.7656C39.0117 56.8477 39 56.918 39 57C39 63.6914 41.0977 69.1406 44.9414 72.75C48.7734 76.3711 54.1172 78 60 78V72C55.1953 72 51.5391 70.7227 49.043 68.3906C46.9102 66.375 45.4688 63.457 45.0938 59.2031C49.043 60.6914 52.5938 61.9453 55.0547 62.6133C55.9102 62.8359 56.7891 62.9531 57.6562 62.9531C63.1172 62.9531 68.4023 58.5938 69.3984 53.0625L72 39L63 45C48.9375 45 45.5977 36 45.5977 36C46.6523 33.4688 48.832 31.6758 51.3633 30.3633L54 33V29.2148C54.5625 29.0156 55.125 28.8516 55.6875 28.6875L60 33V27.6562C60.1758 27.6211 60.375 27.5742 60.5508 27.5508L66 33V27L75 33V18.457C75 14.0273 72 9.94922 67.6523 9.15234C67.0898 9.04687 66.5391 9 66 9C63.5977 9 61.4531 10.0078 59.8359 11.5547L55.5 0L51 12H33L15 0ZM21 11.2031L29.6719 16.9922L31.1836 18H62.0156L63.7969 16.0312C64.1484 15.6445 64.8867 15 66 15C66.1875 15 66.375 15.0117 66.5625 15.0469C67.9336 15.3047 69 16.793 69 18.457V21H67.8164L67.7695 20.9766L66 21H65.9062C63.7852 21.0352 45.0938 21.6914 40.0664 33.6797L39.1523 35.8594L39.9727 38.0742C41.7539 42.8789 48.5977 51 63 51H63.6797L63.4922 52.0195C63.0234 54.6445 60.293 56.9531 57.6562 56.9531C57.293 56.9531 56.9414 56.9062 56.6133 56.8125C47.3672 54.3281 20.6836 42.6211 20.4141 42.5039L19.2656 42H12.7031L15.8672 35.6836L17.8008 31.8164L11.3438 25.3594L16.7344 23.7539L21 22.4648V11.2031ZM30 21C30 21 30.6914 27 36 27C41.3086 27 45 21 45 21H30Z" fill="white"/>
<path d="M86.8594 52L86.8867 46.7871H91.166C92.2142 46.7871 93.0938 46.4368 93.8047 45.7363C94.5247 45.0357 95.0671 44.0055 95.4316 42.6456C95.7962 41.2857 95.9785 39.6168 95.9785 37.6387V36.3201C95.9785 34.3283 95.7962 32.6593 95.4316 31.3132C95.0671 29.967 94.5293 28.9505 93.8184 28.2637C93.1074 27.5769 92.2324 27.2335 91.1934 27.2335H86.7773V22H91.1934C92.9889 22 94.5703 22.6044 95.9375 23.8132C97.3138 25.022 98.3893 26.7047 99.1641 28.8613C99.9388 31.0041 100.326 33.5041 100.326 36.3613V37.6387C100.326 40.4959 99.9388 43.0027 99.1641 45.1593C98.3893 47.3159 97.3138 48.9986 95.9375 50.2074C94.5703 51.4025 92.9798 52 91.166 52H86.8594ZM89.3066 52H85V22H89.3066V52Z" fill="#F0AD4E"/>
<path d="M111.783 22C113.324 22 114.645 22.3503 115.748 23.0508C116.86 23.7376 117.712 24.7541 118.305 26.1003C118.897 27.4327 119.193 29.0879 119.193 31.0659C119.193 32.7143 119.011 34.1154 118.646 35.2692C118.291 36.4231 117.79 37.3777 117.143 38.1332C116.495 38.8887 115.734 39.5 114.859 39.967L113.492 41.1415H107.107L107.08 35.908H111.77C112.462 35.908 113.041 35.7363 113.506 35.3929C113.971 35.0357 114.317 34.5343 114.545 33.8887C114.773 33.2431 114.887 32.4808 114.887 31.6016C114.887 30.2555 114.632 29.1909 114.121 28.408C113.62 27.625 112.84 27.2335 111.783 27.2335H108.584V52H104.291V22H111.783ZM110.826 38.669L115.365 38.6277L119.918 51.6909V52H115.311L110.826 38.669Z" fill="#F0AD4E"/>
<path d="M128.871 54H124.291L131.688 19H134.586L134.176 25.6346L128.871 54ZM133.205 25.6346L132.754 19H135.666L143.104 54H138.523L133.205 25.6346ZM138.387 47.0288H127.832V40.9231H138.387V47.0288Z" fill="#F0AD4E"/>
<path d="M163.656 51.5491C163.337 52.2794 162.85 53.0721 162.193 53.9272C161.546 54.7644 160.708 55.4859 159.678 56.0915C158.657 56.6972 157.417 57 155.959 57C154.236 57 152.723 56.2696 151.42 54.809C150.117 53.3304 149.1 51.1839 148.371 48.3694C147.651 45.5549 147.291 42.1436 147.291 38.1356V35.9178C147.291 31.892 147.637 28.4718 148.33 25.6573C149.032 22.8428 150.012 20.6963 151.27 19.2178C152.527 17.7393 153.995 17 155.672 17C157.431 17 158.871 17.5611 159.992 18.6834C161.113 19.7878 161.965 21.3198 162.549 23.2792C163.141 25.2387 163.506 27.4921 163.643 30.0394H159.473C159.382 28.739 159.195 27.6257 158.912 26.6994C158.639 25.7553 158.251 25.0338 157.75 24.5351C157.249 24.0185 156.597 23.7602 155.795 23.7602C154.911 23.7602 154.159 24.2144 153.539 25.1229C152.919 26.0314 152.445 27.3852 152.117 29.1844C151.798 30.9657 151.639 33.1924 151.639 35.8644V38.1356C151.639 40.7898 151.812 43.0165 152.158 44.8156C152.505 46.6148 153.015 47.9686 153.689 48.8771C154.373 49.7856 155.216 50.2398 156.219 50.2398C156.839 50.2398 157.354 50.1418 157.764 49.9459C158.174 49.7499 158.507 49.5184 158.762 49.2512C159.017 48.9662 159.213 48.699 159.35 48.4496V41.9833H155.74V35.8644H163.656V51.5491Z" fill="#F0AD4E"/>
<path d="M184.367 37.4024C184.367 41.8944 184.007 45.7547 183.287 48.9833C182.567 52.1918 181.569 54.6684 180.293 56.4131C179.017 58.1377 177.54 59 175.863 59C174.186 59 172.701 58.1377 171.406 56.4131C170.121 54.6684 169.114 52.1918 168.385 48.9833C167.656 45.7547 167.291 41.8944 167.291 37.4024V35.6277C167.291 31.1357 167.651 27.2854 168.371 24.0769C169.1 20.8483 170.107 18.3616 171.393 16.617C172.678 14.8723 174.159 14 175.836 14C177.513 14 178.99 14.8723 180.266 16.617C181.551 18.3616 182.553 20.8483 183.273 24.0769C184.003 27.2854 184.367 31.1357 184.367 35.6277V37.4024ZM180.033 35.5675C180.033 32.5595 179.869 30.0328 179.541 27.9873C179.213 25.9418 178.734 24.3977 178.105 23.3549C177.477 22.3122 176.72 21.7908 175.836 21.7908C174.934 21.7908 174.173 22.3122 173.553 23.3549C172.933 24.3977 172.459 25.9418 172.131 27.9873C171.812 30.0328 171.652 32.5595 171.652 35.5675V37.4024C171.652 40.3904 171.816 42.9171 172.145 44.9826C172.473 47.0281 172.947 48.5822 173.566 49.6451C174.195 50.7079 174.961 51.2393 175.863 51.2393C176.747 51.2393 177.499 50.7079 178.119 49.6451C178.748 48.5822 179.222 47.0281 179.541 44.9826C179.869 42.9171 180.033 40.3904 180.033 37.4024V35.5675Z" fill="#F0AD4E"/>
<path d="M204.137 62H200.596L191.818 26.7665V62H188.291V12H191.818L200.623 47.3022V12H204.137V62Z" fill="#F0AD4E"/>
</svg>
